<svg id="Layer_1" data-name="Layer 1" xmlns="http://www.w3.org/2000/svg" viewBox="0 0 600 600"><defs><style>.cls-1{fill:none;stroke:#000;stroke-linecap:round;stroke-linejoin:round;stroke-width:7.3px;}</style></defs><title>HELP_PAGE_ICONS</title><path class="cls-1" d="M513.25,456.82,453.31,195.45a2.14,2.14,0,0,0-2.56-1.61L408,203.64s-10.84-47.28-13.07-57-13.74-6.4-13.74-6.4l-9.47,4.9L357.26,98.21a.82.82,0,0,0-1-.53L305,113.5,277.3,68.07a.82.82,0,0,0-1.12-.27l-60.84,37.09L190.76,81.68a.82.82,0,0,0-1.15,0L86.91,190.51a.81.81,0,0,0,0,1.14l68.88,65-16.7,8.62-6.22,1.43a2.14,2.14,0,0,0-1.6,2.56l32.12,140a37.13,37.13,0,0,0-6.3.87,36.38,36.38,0,1,0,22.31,69l11.81,51.49a2.14,2.14,0,0,0,2.56,1.61l317.84-72.89A2.14,2.14,0,0,0,513.25,456.82Z"/><circle class="cls-1" cx="456.83" cy="142.08" r="36.38" transform="translate(-19.92 102.21) rotate(-12.5)"/><line class="cls-1" x1="131.51" y1="268.73" x2="450.51" y2="193.73"/><line class="cls-1" x1="199.02" y1="89.48" x2="338.7" y2="220.02"/><path class="cls-1" d="M298.35,102.61c1.16,2.12,68.07,110.89,68.07,110.89"/><line class="cls-1" x1="364.46" y1="121.55" x2="389.34" y2="207.21"/><line class="cls-1" x1="157.31" y1="382.67" x2="188.92" y2="520.51"/><path class="cls-1" d="M488.61,352.32l-63.21,14.5c-5.36,1.22-11-3.3-12.57-10.06l-5.35-23.34c-1.55-6.76,1.57-13.3,6.93-14.53l63.21-14.5"/></svg>