<svg id="Layer_1" data-name="Layer 1" xmlns="http://www.w3.org/2000/svg" viewBox="0 0 600 600"><defs><style>.cls-1,.cls-2,.cls-3{fill:none;stroke:#000;stroke-linecap:round;stroke-linejoin:round;}.cls-1{stroke-width:7.3px;}.cls-2{stroke-width:7.28px;}.cls-3{stroke-width:7.28px;}</style></defs><title>HELP_PAGE_ICONS</title><path class="cls-1" d="M555.87,263.17H522V190.91c0-26.66-31.45-48.48-69.89-48.48H143.39c-38.44,0-69.89,21.82-69.89,48.48V259.6H43.64a6.51,6.51,0,0,0-6.5,6.5v137a6.52,6.52,0,0,0,6.5,6.51H73.5v47.6a.41.41,0,0,0,.41.41h21.4a.41.41,0,0,0,.41-.41v-47.6h7.64a6.52,6.52,0,0,0,6.5-6.51v-2H489.65v5.62a6.52,6.52,0,0,0,6.5,6.5h1.58v44a.41.41,0,0,0,.41.41h21.4a.41.41,0,0,0,.41-.41v-44h35.92a6.52,6.52,0,0,0,6.5-6.5v-137A6.51,6.51,0,0,0,555.87,263.17Z"/><rect class="cls-2" x="37.14" y="259.5" width="72.72" height="149.06" rx="6.5" ry="6.5"/><rect class="cls-3" x="490.14" y="263.5" width="72.72" height="149" rx="6.5" ry="6.5"/><line class="cls-1" x1="109.86" y1="373.5" x2="490.14" y2="373.5"/><line class="cls-1" x1="109.86" y1="302" x2="490.14" y2="302"/><line class="cls-1" x1="300.25" y1="142.5" x2="300.25" y2="299.5"/></svg>