<svg id="Layer_1" data-name="Layer 1" xmlns="http://www.w3.org/2000/svg" viewBox="0 0 600 600"><defs><style>.cls-1{fill:none;stroke:#000;stroke-linecap:round;stroke-linejoin:round;stroke-width:7.3px;}</style></defs><title>HELP_PAGE_ICONS</title><path class="cls-1" d="M326.49,82.16a2.05,2.05,0,0,0-2,2v47H178.56a2.86,2.86,0,0,0-2.85,2.85v83.54a2.86,2.86,0,0,0,2.85,2.85H324.45v47a2.05,2.05,0,0,0,2,2.05l131.81-90Z"/><path class="cls-1" d="M286,242a3,3,0,0,1,3,3v69.23H503.81a4.21,4.21,0,0,1,4.19,4.19v123a4.2,4.2,0,0,1-4.19,4.19H289.05v69.24a3,3,0,0,1-3,3L92,385.38Z"/></svg>