<svg id="Layer_1" data-name="Layer 1" xmlns="http://www.w3.org/2000/svg" viewBox="0 0 600 600"><defs><style>.cls-1{fill:none;stroke:#000;stroke-linecap:round;stroke-linejoin:round;stroke-width:7.3px;}</style></defs><title>HELP_PAGE_ICONS</title><path class="cls-1" d="M412.75,349.07H392.6a128.29,128.29,0,0,0-16.31-39l13.49-13.49a6.28,6.28,0,0,0,0-8.85l-32.29-32.29a6.3,6.3,0,0,0-8.86,0L335.05,269a128.16,128.16,0,0,0-38.92-16.08V233.31a6.28,6.28,0,0,0-6.26-6.26H244.21a6.28,6.28,0,0,0-6.26,6.26v19.62A128.06,128.06,0,0,0,199,269l-14.45-14.46a6.3,6.3,0,0,0-8.86,0l-32.29,32.29a6.28,6.28,0,0,0,0,8.85l14.36,14.36a128,128,0,0,0-16.31,39H121.33a6.27,6.27,0,0,0-6.26,6.26V401a6.28,6.28,0,0,0,6.26,6.26h20a128.15,128.15,0,0,0,16.18,39.35l-14.89,14.89a6.26,6.26,0,0,0,0,8.85l32.28,32.29a6.28,6.28,0,0,0,8.86,0l14.79-14.79A128.06,128.06,0,0,0,238,504.26v20.48a6.28,6.28,0,0,0,6.26,6.26h45.66a6.28,6.28,0,0,0,6.26-6.26V504.26a128.06,128.06,0,0,0,39.45-16.42l13.92,13.92a6.28,6.28,0,0,0,8.86,0l32.28-32.28a6.28,6.28,0,0,0,0-8.86l-14-14a128.4,128.4,0,0,0,16.18-39.35h19.95A6.28,6.28,0,0,0,419,401V355.33A6.27,6.27,0,0,0,412.75,349.07Z"/><circle class="cls-1" cx="267.04" cy="379.03" r="59.92"/><path class="cls-1" d="M481.09,144H468.71a78.88,78.88,0,0,0-10-24L467,111.7a3.85,3.85,0,0,0,0-5.44L447.14,86.43a3.85,3.85,0,0,0-5.44,0l-8.35,8.34a78.61,78.61,0,0,0-23.9-9.88v-12A3.86,3.86,0,0,0,405.6,69H377.55a3.86,3.86,0,0,0-3.84,3.85v12a78.77,78.77,0,0,0-23.91,9.88l-8.88-8.88a3.87,3.87,0,0,0-5.44,0l-19.83,19.84a3.85,3.85,0,0,0,0,5.44l8.82,8.82a78.63,78.63,0,0,0-10,24H302.07a3.86,3.86,0,0,0-3.85,3.85v28a3.86,3.86,0,0,0,3.85,3.84h12.26a78.79,78.79,0,0,0,9.93,24.17L315.12,213a3.85,3.85,0,0,0,0,5.44L335,238.28a3.85,3.85,0,0,0,5.44,0l9.09-9.08a78.74,78.74,0,0,0,24.23,10.08v12.58a3.86,3.86,0,0,0,3.84,3.85H405.6a3.86,3.86,0,0,0,3.85-3.85V239.28a78.74,78.74,0,0,0,24.23-10.08l8.55,8.55a3.85,3.85,0,0,0,5.44,0l19.84-19.83a3.87,3.87,0,0,0,0-5.44l-8.62-8.62a78.56,78.56,0,0,0,9.94-24.17h12.26a3.85,3.85,0,0,0,3.84-3.84v-28A3.86,3.86,0,0,0,481.09,144Z"/><circle class="cls-1" cx="391.58" cy="162.36" r="36.81"/></svg>