<svg id="Layer_1" data-name="Layer 1" xmlns="http://www.w3.org/2000/svg" viewBox="0 0 600 600"><defs><style>.cls-1,.cls-2,.cls-3{fill:none;stroke:#000;stroke-linecap:round;stroke-linejoin:round;}.cls-1{stroke-width:7.31px;}.cls-2{stroke-width:8.38px;}.cls-3{stroke-width:7.25px;}</style></defs><title>HELP_PAGE_ICONS</title><polyline class="cls-1" points="507.52 429.79 300 496.2 92.48 429.79"/><polygon class="cls-1" points="92.48 161.15 302.8 103.8 507.52 161.15 300 227.56 92.48 161.15"/><line class="cls-2" x1="507.52" y1="429.79" x2="507.52" y2="161.15"/><line class="cls-2" x1="92.48" y1="161.15" x2="92.48" y2="429.79"/><line class="cls-2" x1="300" y1="227.56" x2="300" y2="496.2"/><line class="cls-3" x1="201.15" y1="132.48" x2="406.4" y2="192.85"/><path d="M414.8,259.32c-21.55,4.89-38,38.69-36.83,75.49s19.65,62.67,41.2,57.77,38-38.69,36.83-75.49S436.35,254.42,414.8,259.32Zm4,121.12c-17.62,4-32.71-17.15-33.69-47.24s12.5-57.74,30.12-61.74,32.71,17.14,33.69,47.24S436.39,376.44,418.77,380.44Z"/><path d="M426.31,316.65c-2.91.66-5.38-3-5.55-7.95L420,284.81l-8.62,2,.78,23.89c.17,5-2,9.65-4.88,10.32l-13.93,3.16.47,14.32,13.93-3.16c2.91-.66,5.32,2.92,5.48,7.89l.77,23.57,8.62-2-.77-23.57c-.16-5,2-9.59,4.95-10.26l13.86-3.15-.47-14.32Z"/><path d="M426.31,316.65c-2.91.66-5.38-3-5.55-7.95L420,284.81l-8.62,2,.78,23.89c.17,5-2,9.65-4.88,10.32l-13.93,3.16.47,14.32,13.93-3.16c2.91-.66,5.32,2.92,5.48,7.89l.77,23.57,8.62-2-.77-23.57c-.16-5,2-9.59,4.95-10.26l13.86-3.15-.47-14.32Z"/><path d="M426.31,316.65c-2.91.66-5.38-3-5.55-7.95L420,284.81l-8.62,2,.78,23.89c.17,5-2,9.65-4.88,10.32l-13.93,3.16.47,14.32,13.93-3.16c2.91-.66,5.32,2.92,5.48,7.89l.77,23.57,8.62-2-.77-23.57c-.16-5,2-9.59,4.95-10.26l13.86-3.15-.47-14.32Z"/></svg>