<svg id="Layer_1" data-name="Layer 1" xmlns="http://www.w3.org/2000/svg" viewBox="0 0 600 600"><defs><style>.cls-1{fill:none;stroke:#000;stroke-linecap:round;stroke-linejoin:round;stroke-width:8.38px;}</style></defs><title>HELP_PAGE_ICONS</title><path class="cls-1" d="M172.65,214.74C176,138.46,225.71,96,302,96c73,0,125.36,35.82,125.36,106.79,0,108.12-106.12,107.46-106.12,204.3H280.1c0-110.11,98.83-106.79,98.83-197,0-45.77-33.83-67.66-81.58-67.66-49.09,0-80.26,24.54-82.92,73.63ZM331.42,475.52c0,16.42-11.85,28.47-27.65,28.47-15.24,0-27.1-12.05-27.1-28.47S288.53,447,303.77,447C319.57,447,331.42,459.09,331.42,475.52Z"/></svg>